<?xml version="1.0" encoding="UTF-8" ?>
<!DOCTYPE svg PUBLIC "-//W3C//DTD SVG 1.1//EN" "http://www.w3.org/Graphics/SVG/1.1/DTD/svg11.dtd">
<svg width="200pt" height="200pt" viewBox="0 0 200 200" version="1.1" xmlns="http://www.w3.org/2000/svg">
<g id="#ffffffff">
<path fill="#ffffff" opacity="1.00" d=" M 91.07 14.11 C 108.19 12.39 125.83 15.71 140.97 23.95 C 159.04 33.62 173.44 49.97 180.69 69.16 C 188.55 89.70 188.18 113.27 179.61 133.53 C 172.09 151.54 158.21 166.80 141.02 176.03 C 121.61 186.60 98.07 189.12 76.81 183.19 C 60.50 178.73 45.63 169.25 34.61 156.43 C 20.91 140.72 13.27 119.82 13.73 98.97 C 13.75 78.33 21.74 57.84 35.54 42.51 C 49.64 26.54 69.87 16.21 91.07 14.11 M 45.98 65.84 C 41.12 68.73 35.79 72.87 35.47 79.01 C 35.10 82.24 37.82 84.40 40.24 85.93 C 38.74 81.20 39.97 75.98 43.97 72.89 C 58.31 61.06 77.89 57.61 96.02 59.24 C 104.07 59.79 112.75 62.31 117.81 69.03 C 104.07 75.25 91.14 85.12 84.41 98.91 C 82.92 98.91 81.42 98.90 79.93 98.88 C 84.53 88.77 90.32 79.22 94.46 68.91 C 94.38 66.11 91.07 66.06 89.02 65.90 C 84.34 76.65 80.05 87.58 74.93 98.15 C 73.17 98.33 71.41 98.58 69.67 98.91 C 70.43 100.47 71.88 101.14 73.53 101.42 C 69.61 109.27 65.38 117.03 59.98 123.98 C 56.85 127.79 53.32 131.70 48.50 133.31 C 46.11 134.22 43.13 133.62 41.61 131.48 C 39.08 127.83 39.46 123.03 40.29 118.90 C 41.05 114.85 44.13 111.78 45.15 107.83 C 42.27 108.93 40.85 111.83 39.44 114.36 C 36.75 119.40 35.60 125.71 37.89 131.11 C 39.75 135.53 45.06 138.23 49.67 136.57 C 55.35 134.45 59.39 129.65 63.12 125.09 C 68.93 117.60 73.89 109.48 78.38 101.14 C 80.13 101.04 81.89 100.95 83.66 100.85 C 81.35 107.09 81.18 114.88 85.81 120.12 C 90.77 125.84 98.95 127.05 106.12 126.59 C 119.29 125.53 131.60 119.54 142.13 111.80 C 139.46 116.90 136.68 121.95 134.02 127.06 C 132.20 130.41 130.65 133.98 130.50 137.86 C 131.95 137.24 133.04 136.12 133.78 134.75 C 141.24 121.83 148.92 108.97 157.89 97.03 C 162.71 96.21 168.34 97.43 172.54 94.57 C 164.78 93.02 156.83 93.21 148.95 93.06 C 139.86 93.50 130.47 92.73 121.71 95.65 C 120.21 96.30 118.06 96.94 117.85 98.84 C 119.05 100.55 121.26 99.89 123.01 99.82 C 132.66 98.46 142.39 97.96 152.10 97.16 C 147.06 105.97 138.40 111.83 129.71 116.61 C 121.52 120.96 112.50 124.92 103.02 124.17 C 97.48 123.76 91.49 121.29 88.87 116.11 C 86.36 111.08 87.49 105.08 89.84 100.21 C 98.60 98.97 107.25 96.39 115.00 92.05 C 119.39 89.58 123.69 86.05 125.01 80.97 C 126.14 77.54 125.54 73.91 124.51 70.55 C 131.31 67.90 138.63 66.37 145.94 66.77 C 149.66 67.08 153.73 67.84 156.46 70.61 C 158.74 72.97 158.29 76.84 156.22 79.19 C 152.31 83.83 146.14 86.73 140.03 86.24 C 137.96 86.10 135.74 84.94 135.19 82.80 C 134.64 79.84 135.16 76.74 134.12 73.86 C 129.61 78.12 132.46 88.05 139.09 88.40 C 144.85 89.07 150.46 86.38 154.88 82.89 C 158.36 80.10 161.57 75.75 160.28 71.04 C 158.75 66.47 153.70 64.46 149.39 63.44 C 140.22 61.65 130.84 64.13 122.23 67.21 C 115.23 60.56 105.59 57.20 96.04 56.95 C 79.07 56.16 61.06 57.21 45.98 65.84 Z" />
<path fill="#ffffff" opacity="1.00" d=" M 90.87 98.20 C 97.49 87.08 107.87 78.42 119.44 72.77 C 119.31 77.72 118.01 82.85 114.43 86.46 C 108.21 92.93 99.48 96.31 90.87 98.20 Z" />
</g>
<g id="#007098ff">
<path fill="#007098" opacity="1.00" d=" M 45.98 65.84 C 61.06 57.21 79.07 56.16 96.04 56.95 C 105.59 57.20 115.23 60.56 122.23 67.21 C 120.74 67.79 119.27 68.39 117.81 69.03 C 112.75 62.31 104.07 59.79 96.02 59.24 C 77.89 57.61 58.31 61.06 43.97 72.89 C 39.97 75.98 38.74 81.20 40.24 85.93 C 37.82 84.40 35.10 82.24 35.47 79.01 C 35.79 72.87 41.12 68.73 45.98 65.84 Z" />
<path fill="#007098" opacity="1.00" d=" M 89.02 65.90 C 91.07 66.06 94.38 66.11 94.46 68.91 C 90.32 79.22 84.53 88.77 79.93 98.88 C 81.42 98.90 82.92 98.91 84.41 98.91 C 84.22 99.40 83.84 100.37 83.66 100.85 C 81.89 100.95 80.13 101.04 78.38 101.14 C 73.89 109.48 68.93 117.60 63.12 125.09 C 59.39 129.65 55.35 134.45 49.67 136.57 C 45.06 138.23 39.75 135.53 37.89 131.11 C 35.60 125.71 36.75 119.40 39.44 114.36 C 40.85 111.83 42.27 108.93 45.15 107.83 C 44.13 111.78 41.05 114.85 40.29 118.90 C 39.46 123.03 39.08 127.83 41.61 131.48 C 43.13 133.62 46.11 134.22 48.50 133.31 C 53.32 131.70 56.85 127.79 59.98 123.98 C 65.38 117.03 69.61 109.27 73.53 101.42 C 71.88 101.14 70.43 100.47 69.67 98.91 C 71.41 98.58 73.17 98.33 74.93 98.15 C 80.05 87.58 84.34 76.65 89.02 65.90 Z" />
<path fill="#007098" opacity="1.00" d=" M 119.44 72.77 C 121.11 71.97 122.80 71.24 124.51 70.55 C 125.54 73.91 126.14 77.54 125.01 80.97 C 123.69 86.05 119.39 89.58 115.00 92.05 C 107.25 96.39 98.60 98.97 89.84 100.21 C 90.09 99.71 90.61 98.70 90.87 98.20 C 99.48 96.31 108.21 92.93 114.43 86.46 C 118.01 82.85 119.31 77.72 119.44 72.77 Z" />
</g>
<g id="#bda589ff">
<path fill="#bda589" opacity="1.00" d=" M 122.23 67.21 C 130.84 64.13 140.22 61.65 149.39 63.44 C 153.70 64.46 158.75 66.47 160.28 71.04 C 161.57 75.75 158.36 80.10 154.88 82.89 C 150.46 86.38 144.85 89.07 139.09 88.40 C 132.46 88.05 129.61 78.12 134.12 73.86 C 135.16 76.74 134.64 79.84 135.19 82.80 C 135.74 84.94 137.96 86.10 140.03 86.24 C 146.14 86.73 152.31 83.83 156.22 79.19 C 158.29 76.84 158.74 72.97 156.46 70.61 C 153.73 67.84 149.66 67.08 145.94 66.77 C 138.63 66.37 131.31 67.90 124.51 70.55 C 122.80 71.24 121.11 71.97 119.44 72.77 C 107.87 78.42 97.49 87.08 90.87 98.20 C 90.61 98.70 90.09 99.71 89.84 100.21 C 87.49 105.08 86.36 111.08 88.87 116.11 C 91.49 121.29 97.48 123.76 103.02 124.17 C 112.50 124.92 121.52 120.96 129.71 116.61 C 138.40 111.83 147.06 105.97 152.10 97.16 C 142.39 97.96 132.66 98.46 123.01 99.82 C 121.26 99.89 119.05 100.55 117.85 98.84 C 118.06 96.94 120.21 96.30 121.71 95.65 C 130.47 92.73 139.86 93.50 148.95 93.06 C 156.83 93.21 164.78 93.02 172.54 94.57 C 168.34 97.43 162.71 96.21 157.89 97.03 C 148.92 108.97 141.24 121.83 133.78 134.75 C 133.04 136.12 131.95 137.24 130.50 137.86 C 130.65 133.98 132.20 130.41 134.02 127.06 C 136.68 121.95 139.46 116.90 142.13 111.80 C 131.60 119.54 119.29 125.53 106.12 126.59 C 98.95 127.05 90.77 125.84 85.81 120.12 C 81.18 114.88 81.35 107.09 83.66 100.85 C 83.84 100.37 84.22 99.40 84.41 98.91 C 91.14 85.12 104.07 75.25 117.81 69.03 C 119.27 68.39 120.74 67.79 122.23 67.21 Z" />
</g>
</svg>
