<?xml version="1.0" encoding="UTF-8" ?>
<!DOCTYPE svg PUBLIC "-//W3C//DTD SVG 1.1//EN" "http://www.w3.org/Graphics/SVG/1.1/DTD/svg11.dtd">
<svg width="197pt" height="195pt" viewBox="0 0 197 195" version="1.1" xmlns="http://www.w3.org/2000/svg">
<g id="#7a5730ff">
<path fill="#7a5730" opacity="1.00" d=" M 57.41 8.43 C 65.75 8.45 74.10 8.43 82.45 8.45 C 82.49 12.60 82.46 16.75 82.50 20.90 C 84.51 20.89 86.52 20.88 88.53 20.85 C 88.54 23.02 88.54 25.19 88.53 27.36 C 92.75 27.35 96.98 27.33 101.20 27.40 C 101.21 29.43 101.23 31.46 101.24 33.49 C 92.89 33.39 84.54 33.68 76.20 33.32 C 76.16 31.31 76.12 29.30 76.08 27.30 C 73.99 27.30 71.91 27.31 69.82 27.31 C 69.82 25.25 69.82 23.19 69.80 21.12 C 67.78 21.05 65.77 20.99 63.76 20.94 C 63.70 23.06 63.67 25.19 63.63 27.31 C 61.55 27.30 59.47 27.30 57.40 27.29 C 57.37 21.00 57.38 14.72 57.41 8.43 Z" />
<path fill="#7a5730" opacity="1.00" d=" M 94.87 8.42 C 96.96 8.42 99.06 8.42 101.15 8.41 C 101.34 12.52 101.01 16.64 101.24 20.74 C 103.08 21.03 104.99 20.71 106.81 21.20 C 107.93 23.09 107.29 25.37 107.47 27.44 C 105.44 27.36 103.41 27.28 101.39 27.18 C 101.08 25.33 101.88 23.05 100.45 21.55 C 96.91 19.82 92.45 21.43 88.55 20.80 C 88.56 18.76 88.55 16.71 88.56 14.67 C 90.63 14.65 92.70 14.64 94.77 14.62 C 94.79 12.55 94.82 10.49 94.87 8.42 Z" />
<path fill="#7a5730" opacity="1.00" d=" M 7.44 8.42 C 22.04 8.44 36.63 8.43 51.22 8.43 C 51.35 23.05 51.23 37.66 51.28 52.28 C 36.68 52.27 22.07 52.28 7.46 52.27 C 7.43 37.65 7.45 23.04 7.44 8.42 M 13.84 14.83 C 13.86 25.16 13.85 35.48 13.85 45.81 C 24.17 45.85 34.49 45.89 44.81 45.79 C 44.87 35.47 44.86 25.16 44.81 14.84 C 34.49 14.86 24.16 14.86 13.84 14.83 Z" />
<path fill="#7a5730" opacity="1.00" d=" M 144.74 8.45 C 159.35 8.40 173.96 8.45 188.57 8.43 C 188.56 23.05 188.57 37.67 188.56 52.29 C 173.94 52.26 159.33 52.27 144.72 52.28 C 144.75 37.67 144.72 23.06 144.74 8.45 M 151.16 14.91 C 151.17 25.21 151.10 35.51 151.18 45.81 C 161.49 45.91 171.80 45.87 182.10 45.83 C 182.09 35.51 182.14 25.20 182.09 14.88 C 171.78 14.91 161.47 14.86 151.16 14.91 Z" />
<path fill="#7a5730" opacity="1.00" d=" M 107.30 14.66 C 113.58 14.62 119.87 14.65 126.16 14.64 C 126.17 16.73 126.19 18.82 126.20 20.90 C 120.20 20.88 114.14 21.40 108.18 20.80 C 106.80 19.05 107.50 16.70 107.30 14.66 Z" />
<path fill="#7a5730" opacity="1.00" d=" M 132.31 20.92 C 132.32 18.82 132.34 16.71 132.39 14.61 C 134.46 14.62 136.53 14.64 138.61 14.66 C 138.61 16.76 138.60 18.86 138.59 20.96 C 136.49 20.97 134.40 20.95 132.31 20.92 Z" />
<path fill="#7a5730" opacity="1.00" d=" M 19.88 20.84 C 26.17 20.92 32.47 20.88 38.77 20.88 C 38.87 27.18 38.84 33.49 38.78 39.80 C 32.49 39.86 26.21 39.80 19.93 39.81 C 19.84 33.49 19.89 27.16 19.88 20.84 Z" />
<path fill="#7a5730" opacity="1.00" d=" M 157.19 20.91 C 163.47 20.92 169.76 20.88 176.04 20.92 C 176.14 27.21 176.08 33.51 176.08 39.80 C 169.78 39.90 163.49 39.88 157.19 39.80 C 157.10 33.50 157.13 27.21 157.19 20.91 Z" />
<path fill="#7a5730" opacity="1.00" d=" M 107.61 27.63 C 111.54 26.66 115.78 27.44 119.83 27.25 C 119.84 29.30 119.85 31.35 119.87 33.40 C 126.12 33.42 132.36 33.39 138.60 33.43 C 138.62 39.70 138.61 45.98 138.60 52.26 C 136.51 52.26 134.42 52.27 132.34 52.27 C 132.30 48.10 132.32 43.92 132.31 39.75 C 128.21 39.69 124.10 39.70 120.00 39.71 C 119.87 41.57 119.71 43.43 119.50 45.29 C 121.53 46.54 123.97 45.80 126.20 45.84 C 126.16 50.05 126.15 54.26 126.19 58.46 C 122.01 58.46 117.83 58.47 113.66 58.45 C 113.59 60.56 113.50 62.66 113.36 64.76 C 111.43 64.76 109.49 64.75 107.56 64.74 C 107.51 66.75 107.48 68.76 107.44 70.76 C 109.45 70.80 111.46 70.82 113.48 70.83 C 113.49 68.76 113.50 66.70 113.52 64.64 C 117.73 64.60 121.95 64.60 126.17 64.64 C 126.33 66.63 125.38 68.85 126.28 70.72 C 128.13 71.68 130.36 70.56 132.35 70.66 C 132.34 72.89 132.34 75.12 132.35 77.35 C 134.43 77.33 136.52 77.33 138.60 77.34 C 138.60 75.18 138.61 73.02 138.61 70.87 C 140.65 70.82 142.69 70.79 144.72 70.74 C 144.69 68.74 144.66 66.74 144.60 64.73 C 143.68 64.75 141.83 64.78 140.91 64.80 C 140.14 65.32 139.36 65.84 138.59 66.35 C 138.62 67.79 138.64 69.22 138.66 70.66 C 136.62 70.71 134.56 70.85 132.55 70.49 C 132.32 69.26 132.13 68.02 131.99 66.78 C 131.56 66.07 131.13 65.36 130.70 64.65 C 129.23 64.71 127.75 64.75 126.28 64.77 C 126.19 62.81 126.08 60.84 126.25 58.88 C 128.22 58.08 130.43 58.48 132.51 58.34 C 132.58 60.44 131.86 62.63 132.30 64.68 C 134.36 64.98 136.63 64.95 138.69 64.68 C 139.07 62.65 138.36 60.49 138.41 58.42 C 144.74 58.35 151.06 58.37 157.39 58.40 C 157.39 60.46 157.39 62.52 157.40 64.58 C 161.49 64.59 165.57 64.58 169.66 64.60 C 169.69 62.53 169.71 60.46 169.73 58.39 C 176.01 58.39 182.28 58.37 188.55 58.40 C 188.57 62.57 188.57 66.73 188.54 70.89 C 186.46 70.91 184.38 70.92 182.31 70.91 C 182.27 68.84 182.25 66.77 182.24 64.69 C 180.18 64.69 178.14 64.69 176.09 64.70 C 176.11 68.85 176.12 73.01 176.09 77.16 C 178.18 77.16 180.28 77.17 182.37 77.20 C 182.35 79.25 182.35 81.31 182.35 83.37 C 184.41 83.37 186.48 83.37 188.56 83.38 C 188.57 87.53 188.56 91.68 188.58 95.83 C 184.41 95.91 180.25 95.92 176.08 95.85 C 176.03 93.79 175.99 91.72 175.95 89.66 C 173.90 89.66 171.84 89.66 169.79 89.67 C 169.79 91.73 169.79 93.79 169.77 95.85 C 165.66 95.82 161.52 96.18 157.44 95.62 C 157.13 93.85 156.74 91.98 157.24 90.21 C 159.09 89.08 161.36 89.63 163.42 89.45 C 163.43 87.47 163.44 85.49 163.45 83.52 C 161.48 83.51 159.51 83.50 157.55 83.49 C 157.41 85.29 157.68 87.19 156.84 88.86 C 155.32 90.36 153.17 89.56 151.30 89.53 C 151.24 87.48 151.19 85.43 151.11 83.38 C 148.96 83.39 146.81 83.39 144.66 83.40 C 144.66 85.48 144.66 87.56 144.65 89.64 C 146.89 89.63 149.12 89.62 151.36 89.62 C 151.16 91.41 150.95 93.19 150.71 94.98 C 151.12 95.42 151.53 95.85 151.96 96.28 C 153.76 96.01 155.57 95.76 157.39 95.55 C 157.39 97.75 157.39 99.95 157.41 102.15 C 155.27 102.18 153.14 102.23 151.01 102.31 C 151.08 104.34 151.13 106.36 151.18 108.39 C 149.05 108.43 146.92 108.46 144.79 108.51 C 144.82 112.56 144.86 116.61 144.71 120.66 C 142.66 120.73 140.61 120.77 138.57 120.81 C 138.57 118.72 138.56 116.64 138.56 114.56 C 136.50 114.57 134.44 114.57 132.38 114.58 C 132.38 112.52 132.38 110.46 132.37 108.40 C 134.43 108.41 136.49 108.42 138.56 108.43 C 138.56 104.24 138.56 100.05 138.58 95.85 C 134.47 95.75 130.35 95.77 126.24 95.83 C 126.35 88.06 126.17 80.29 126.35 72.51 C 125.72 71.90 125.09 71.27 124.48 70.64 C 122.88 70.69 121.29 70.72 119.70 70.75 C 119.68 79.11 119.70 87.47 119.68 95.83 C 121.83 95.83 123.99 95.84 126.14 95.85 C 126.14 100.02 126.13 104.18 126.12 108.35 C 123.99 108.39 121.86 108.42 119.73 108.45 C 119.75 110.49 119.76 112.54 119.78 114.58 C 117.71 114.57 115.63 114.57 113.56 114.57 C 113.57 116.65 113.58 118.73 113.58 120.81 C 111.55 120.77 109.50 120.87 107.51 120.45 C 107.22 118.59 107.24 116.69 107.15 114.81 C 105.32 114.73 103.46 114.79 101.65 114.46 C 100.74 112.61 101.32 110.38 101.16 108.38 C 105.29 108.39 109.43 108.38 113.56 108.40 C 113.57 104.23 113.58 100.06 113.58 95.89 C 111.50 95.82 109.43 95.77 107.35 95.67 C 107.30 93.71 107.27 91.76 107.24 89.81 C 105.33 89.74 103.41 89.78 101.51 89.50 C 101.20 87.48 101.28 85.42 101.25 83.39 C 99.10 83.39 96.94 83.38 94.79 83.39 C 94.84 79.22 94.83 75.05 94.83 70.89 C 96.94 70.86 99.05 70.84 101.16 70.81 C 101.15 68.75 101.14 66.70 101.14 64.65 C 99.06 64.66 96.98 64.67 94.90 64.69 C 94.84 62.64 94.81 60.59 94.79 58.54 C 92.91 58.40 90.87 58.83 89.17 57.82 C 88.21 56.14 88.24 54.37 89.28 52.51 C 87.07 51.88 84.72 52.36 82.46 52.31 C 82.38 48.10 82.41 43.89 82.42 39.68 C 84.46 39.65 86.50 39.63 88.55 39.61 C 88.64 43.28 88.66 46.94 88.54 50.61 C 89.34 51.15 90.13 51.70 90.92 52.25 C 92.23 52.24 93.54 52.22 94.85 52.21 C 94.83 50.10 94.80 47.99 94.77 45.88 C 96.91 45.88 99.05 45.88 101.20 45.86 C 101.19 47.99 101.19 50.12 101.21 52.25 C 103.27 52.24 105.33 52.23 107.39 52.22 C 107.39 50.13 107.39 48.04 107.40 45.95 C 109.43 45.92 111.47 45.88 113.51 45.85 C 113.54 43.79 113.56 41.72 113.57 39.66 C 109.42 39.66 105.27 39.68 101.13 39.67 C 101.15 37.72 101.12 35.77 101.29 33.83 C 103.17 33.14 105.22 33.36 107.19 33.22 C 107.30 31.36 107.07 29.44 107.61 27.63 M 113.52 45.84 C 113.52 48.01 113.52 50.17 113.52 52.34 C 115.67 52.33 117.83 52.32 119.99 52.31 C 119.82 50.03 119.52 47.77 119.08 45.54 C 117.22 45.67 115.37 45.77 113.52 45.84 M 151.13 70.71 C 151.13 72.92 151.13 75.13 151.14 77.34 C 157.13 77.36 163.12 77.14 169.11 77.50 C 169.45 75.26 169.75 73.00 169.91 70.73 C 163.65 70.75 157.39 70.77 151.13 70.71 M 107.45 77.27 C 107.45 79.29 107.47 81.30 107.49 83.31 C 109.48 83.32 111.48 83.32 113.48 83.33 C 113.50 81.31 113.51 79.29 113.52 77.27 C 111.49 77.26 109.47 77.26 107.45 77.27 M 169.61 83.40 C 171.76 83.40 173.91 83.39 176.07 83.37 C 176.06 81.34 176.04 79.31 176.03 77.27 C 174.27 77.23 172.51 77.17 170.76 77.11 C 169.67 79.03 169.67 81.25 169.61 83.40 M 132.43 83.48 C 132.43 85.49 132.44 87.50 132.44 89.51 C 134.46 89.52 136.47 89.53 138.49 89.53 C 138.48 87.52 138.48 85.52 138.47 83.51 C 136.46 83.50 134.44 83.49 132.43 83.48 M 144.67 95.74 C 144.66 97.93 144.66 100.12 144.66 102.31 C 146.83 102.29 149.01 102.29 151.19 102.28 C 151.24 100.70 151.29 99.11 151.35 97.53 C 150.72 96.90 150.10 96.26 149.49 95.62 C 147.88 95.67 146.27 95.71 144.67 95.74 Z" />
<path fill="#7a5730" opacity="1.00" d=" M 63.63 33.42 C 67.83 33.40 72.03 33.39 76.22 33.44 C 76.22 35.52 76.20 37.60 76.16 39.68 C 74.06 39.67 71.96 39.67 69.86 39.68 C 69.85 41.73 69.84 43.78 69.82 45.83 C 71.95 45.87 74.08 45.88 76.21 45.87 C 76.21 47.98 76.21 50.09 76.20 52.20 C 74.10 52.22 72.00 52.24 69.90 52.26 C 69.86 50.07 69.80 47.89 69.71 45.72 C 67.67 45.80 65.64 45.89 63.60 46.00 C 63.60 48.09 63.60 50.18 63.61 52.27 C 65.62 52.29 67.64 52.31 69.65 52.37 C 69.71 54.37 69.73 56.38 69.77 58.39 C 71.90 58.45 74.04 58.50 76.18 58.56 C 76.22 62.65 76.17 66.74 76.24 70.82 C 78.31 70.85 80.37 70.86 82.43 70.88 C 82.44 72.97 82.45 75.07 82.45 77.17 C 80.38 77.20 78.32 77.22 76.25 77.25 C 76.23 79.31 76.20 81.37 76.17 83.44 C 74.06 83.44 71.94 83.45 69.82 83.45 C 69.82 77.18 69.87 70.92 69.78 64.66 C 65.65 64.70 61.52 64.68 57.39 64.67 C 57.37 56.32 57.39 47.98 57.39 39.64 C 59.46 39.62 61.52 39.61 63.58 39.60 C 63.59 37.54 63.61 35.48 63.63 33.42 Z" />
<path fill="#7a5730" opacity="1.00" d=" M 76.44 52.24 C 78.41 52.24 80.38 52.24 82.35 52.26 C 82.35 54.12 83.02 56.19 81.83 57.83 C 80.17 58.87 78.16 58.34 76.32 58.44 C 76.33 56.37 76.36 54.31 76.44 52.24 Z" />
<path fill="#7a5730" opacity="1.00" d=" M 20.05 58.38 C 26.26 58.39 32.47 58.37 38.68 58.40 C 38.70 60.48 38.71 62.56 38.72 64.64 C 36.65 64.67 34.59 64.69 32.53 64.71 C 32.52 66.78 32.51 68.85 32.50 70.92 C 30.50 70.82 28.34 71.29 26.45 70.50 C 26.19 68.56 26.24 66.60 26.18 64.65 C 24.06 64.64 21.94 64.63 19.83 64.62 C 19.91 66.70 20.01 68.78 20.12 70.85 C 22.20 70.85 24.27 70.83 26.34 70.81 C 26.29 75.03 26.31 79.25 26.28 83.47 C 20.01 83.48 13.73 83.48 7.46 83.47 C 7.45 77.17 7.41 70.87 7.47 64.57 C 11.58 64.58 15.69 64.58 19.79 64.60 C 19.88 62.52 19.95 60.45 20.05 58.38 M 13.61 70.79 C 13.60 72.96 13.60 75.14 13.59 77.31 C 15.69 77.31 17.80 77.31 19.90 77.32 C 19.91 75.10 19.91 72.87 19.91 70.65 C 17.81 70.71 15.71 70.75 13.61 70.79 Z" />
<path fill="#7a5730" opacity="1.00" d=" M 44.93 58.36 C 47.05 58.38 49.17 58.41 51.29 58.46 C 51.28 60.53 51.27 62.60 51.27 64.67 C 49.12 64.67 46.97 64.67 44.81 64.65 C 44.85 62.55 44.88 60.46 44.93 58.36 Z" />
<path fill="#7a5730" opacity="1.00" d=" M 83.14 59.14 C 84.49 57.94 86.51 57.94 87.87 59.14 C 88.96 60.77 88.56 62.79 88.73 64.64 C 86.58 64.65 84.43 64.65 82.28 64.63 C 82.46 62.79 82.04 60.77 83.14 59.14 Z" />
<path fill="#7a5730" opacity="1.00" d=" M 38.62 70.84 C 46.97 70.84 55.32 70.78 63.68 70.86 C 63.68 72.97 63.70 75.09 63.71 77.20 C 61.63 77.23 59.55 77.26 57.47 77.29 C 57.52 83.46 57.48 89.63 57.49 95.80 C 61.34 95.79 65.22 95.59 69.03 96.24 C 69.46 95.83 69.88 95.41 70.29 94.98 C 70.03 93.19 69.81 91.40 69.62 89.61 C 71.81 89.59 74.01 89.58 76.20 89.58 C 76.21 91.67 76.21 93.76 76.20 95.86 C 74.73 95.86 73.27 95.86 71.80 95.86 C 71.10 96.36 70.41 96.85 69.71 97.35 C 69.58 101.08 70.89 105.14 69.24 108.66 C 67.37 108.53 65.49 108.42 63.61 108.32 C 63.57 106.29 63.55 104.26 63.53 102.24 C 61.53 102.23 59.52 102.24 57.51 102.26 C 57.53 104.26 57.55 106.27 57.57 108.27 C 59.54 108.27 61.51 108.27 63.48 108.28 C 63.63 110.39 63.71 112.51 63.79 114.62 C 53.33 114.68 42.87 114.65 32.41 114.65 C 32.41 112.58 32.40 110.51 32.39 108.45 C 28.29 108.44 24.18 108.45 20.08 108.45 C 20.05 110.47 20.04 112.50 20.05 114.52 C 22.14 114.52 24.22 114.53 26.31 114.54 C 26.32 120.84 26.30 127.15 26.33 133.45 C 24.18 133.43 22.04 133.41 19.89 133.39 C 19.91 129.21 19.92 125.03 19.86 120.85 C 17.82 120.85 15.77 120.84 13.73 120.83 C 13.76 127.09 13.74 133.35 13.71 139.60 C 11.63 139.61 9.55 139.61 7.46 139.61 C 7.42 129.19 7.45 118.78 7.45 108.36 C 9.50 108.35 11.55 108.34 13.61 108.34 C 13.66 104.19 13.64 100.04 13.64 95.89 C 11.57 95.88 9.50 95.88 7.43 95.87 C 7.44 93.75 7.45 91.64 7.47 89.53 C 9.57 89.55 11.66 89.57 13.75 89.58 C 13.75 91.65 13.73 93.72 13.72 95.79 C 15.75 95.79 17.78 95.80 19.81 95.81 C 19.85 93.75 19.86 91.67 20.17 89.62 C 22.21 89.48 24.26 89.54 26.30 89.56 C 26.31 91.65 26.31 93.74 26.30 95.84 C 24.20 95.86 22.11 95.87 20.01 95.88 C 20.02 97.96 20.05 100.05 20.10 102.14 C 24.20 102.11 28.31 102.14 32.42 101.98 C 32.42 99.92 32.42 97.87 32.43 95.81 C 38.67 95.77 44.90 95.80 51.13 95.80 C 51.16 93.76 51.18 91.73 51.20 89.69 C 47.01 89.64 42.81 89.66 38.62 89.65 C 38.61 83.38 38.62 77.11 38.62 70.84 M 44.90 77.24 C 44.82 79.31 44.78 81.37 44.75 83.44 C 46.95 83.46 49.16 83.46 51.36 83.48 C 51.34 81.38 51.33 79.28 51.33 77.19 C 49.19 77.19 47.04 77.21 44.90 77.24 M 44.93 102.21 C 44.82 104.26 44.74 106.31 44.67 108.36 C 46.90 108.42 49.13 108.46 51.36 108.50 C 51.34 106.39 51.34 104.29 51.35 102.19 C 49.21 102.18 47.07 102.18 44.93 102.21 Z" />
<path fill="#7a5730" opacity="1.00" d=" M 63.63 83.30 C 65.70 83.36 67.77 83.43 69.84 83.55 C 69.87 85.49 69.89 87.42 69.90 89.36 C 67.80 89.56 65.69 89.64 63.58 89.69 C 63.58 87.56 63.59 85.43 63.63 83.30 Z" />
<path fill="#7a5730" opacity="1.00" d=" M 88.54 83.31 C 90.57 83.43 92.68 83.17 94.64 83.82 C 94.82 85.68 94.83 87.58 94.48 89.43 C 92.58 89.69 90.67 89.65 88.77 89.71 C 88.64 87.58 88.58 85.44 88.54 83.31 Z" />
<path fill="#7a5730" opacity="1.00" d=" M 82.40 89.56 C 84.46 89.58 86.53 89.61 88.59 89.67 C 88.55 95.23 88.77 100.79 88.54 106.35 C 88.37 106.72 88.02 107.47 87.84 107.84 C 84.20 109.34 80.04 108.28 76.19 108.37 C 76.18 106.29 76.18 104.22 76.20 102.15 C 78.25 102.15 80.29 102.16 82.33 102.17 C 82.41 97.97 82.38 93.76 82.40 89.56 Z" />
<path fill="#7a5730" opacity="1.00" d=" M 94.81 89.64 C 96.95 89.63 99.09 89.63 101.23 89.62 C 101.23 91.67 101.24 93.71 101.25 95.75 C 103.29 95.76 105.33 95.78 107.37 95.81 C 107.39 97.93 107.40 100.04 107.41 102.16 C 103.20 102.17 98.99 102.17 94.78 102.18 C 94.85 98.00 94.84 93.82 94.81 89.64 Z" />
<path fill="#7a5730" opacity="1.00" d=" M 157.45 102.47 C 161.50 101.71 165.66 102.22 169.76 102.15 C 169.78 104.21 169.78 106.28 169.79 108.34 C 171.88 108.34 173.97 108.35 176.06 108.35 C 176.09 110.41 176.10 112.48 176.10 114.54 C 180.25 114.53 184.40 114.54 188.55 114.54 C 188.56 116.63 188.56 118.73 188.56 120.83 C 184.40 120.87 180.23 120.87 176.07 120.81 C 176.04 118.75 176.02 116.69 176.00 114.63 C 173.94 114.63 171.88 114.63 169.82 114.63 C 169.80 116.70 169.78 118.77 169.75 120.85 C 163.53 120.81 157.29 120.99 151.07 120.68 C 151.12 122.80 151.15 124.92 151.18 127.04 C 153.25 127.07 155.33 127.11 157.40 127.16 C 157.40 129.24 157.41 131.33 157.43 133.41 C 159.17 133.15 161.22 133.90 162.75 132.75 C 164.16 131.24 163.26 128.97 163.53 127.12 C 165.61 127.10 167.69 127.08 169.77 127.09 C 169.76 128.55 169.74 130.01 169.71 131.47 C 170.31 132.10 170.89 132.74 171.48 133.38 C 175.08 133.28 178.68 133.30 182.28 133.35 C 182.27 131.27 182.27 129.19 182.29 127.12 C 184.38 127.09 186.47 127.09 188.56 127.10 C 188.56 129.20 188.56 131.31 188.55 133.42 C 186.49 133.41 184.43 133.41 182.38 133.40 C 182.36 135.44 182.36 137.47 182.35 139.51 C 184.41 139.51 186.47 139.51 188.53 139.51 C 188.56 141.58 188.58 143.64 188.62 145.71 C 184.43 145.88 180.23 145.84 176.04 145.78 C 176.01 143.73 175.98 141.68 175.96 139.63 C 173.89 139.62 171.82 139.60 169.75 139.59 C 169.77 141.65 169.78 143.72 169.79 145.78 C 167.72 145.81 165.65 145.81 163.59 145.83 C 163.58 147.89 163.59 149.95 163.60 152.01 C 165.66 152.04 167.72 152.06 169.78 152.10 C 169.79 154.16 169.79 156.22 169.78 158.28 C 171.87 158.28 173.97 158.29 176.06 158.30 C 176.11 162.42 176.11 166.55 176.10 170.67 C 178.17 170.69 180.25 170.69 182.33 170.70 C 182.36 174.91 182.36 179.12 182.36 183.34 C 180.28 183.34 178.20 183.35 176.12 183.35 C 176.10 185.42 176.09 187.48 176.06 189.56 C 173.94 189.55 171.83 189.55 169.71 189.54 C 169.69 187.46 169.68 185.38 169.65 183.31 C 171.78 183.27 173.91 183.26 176.03 183.26 C 176.01 181.22 175.99 179.19 175.96 177.16 C 171.84 177.08 167.71 177.09 163.59 177.15 C 163.58 181.28 163.59 185.42 163.58 189.56 C 161.49 189.56 159.40 189.57 157.32 189.57 C 157.27 185.42 157.29 181.27 157.30 177.12 C 155.24 177.10 153.19 177.10 151.14 177.12 C 151.14 181.24 151.13 185.36 151.16 189.48 C 138.62 189.67 126.07 189.55 113.53 189.55 C 113.53 187.48 113.52 185.42 113.51 183.35 C 111.48 183.35 109.45 183.35 107.43 183.36 C 107.43 185.42 107.44 187.49 107.45 189.56 C 105.34 189.56 103.24 189.57 101.14 189.57 C 101.13 187.47 101.13 185.37 101.15 183.28 C 103.22 183.27 105.28 183.27 107.35 183.27 C 107.35 181.20 107.36 179.12 107.36 177.05 C 111.52 176.96 115.67 176.93 119.83 177.08 C 119.84 179.14 119.86 181.19 119.87 183.25 C 128.16 183.26 136.44 183.25 144.72 183.26 C 144.71 181.20 144.70 179.15 144.67 177.09 C 138.50 177.13 132.33 177.10 126.15 177.12 C 126.07 173.04 126.23 168.95 125.72 164.89 C 127.90 164.65 130.08 164.43 132.27 164.26 C 132.28 162.33 132.28 160.41 132.29 158.49 C 130.28 158.44 128.28 158.41 126.27 158.37 C 126.04 160.47 126.96 163.30 124.79 164.62 C 123.12 164.56 120.61 165.29 119.94 163.15 C 119.33 159.83 119.81 156.32 120.25 152.98 C 119.85 152.55 119.44 152.12 119.03 151.70 C 117.24 151.91 115.45 152.11 113.66 152.28 C 113.63 154.32 113.60 156.36 113.56 158.41 C 107.31 158.35 101.06 158.38 94.81 158.40 C 94.81 156.30 94.81 154.20 94.82 152.10 C 96.92 152.09 99.01 152.09 101.11 152.07 C 101.13 149.98 101.16 147.88 101.20 145.79 C 103.19 145.77 105.19 145.80 107.19 145.65 C 107.42 143.65 107.40 141.62 107.42 139.60 C 105.33 139.60 103.24 139.59 101.16 139.59 C 101.16 137.56 101.17 135.53 101.20 133.50 C 99.10 133.43 97.01 133.39 94.91 133.34 C 94.88 135.42 94.85 137.50 94.82 139.58 C 92.74 139.58 90.66 139.58 88.58 139.59 C 88.58 137.54 88.58 135.50 88.58 133.45 C 86.48 133.26 84.19 133.86 82.29 132.76 C 81.91 130.93 82.26 129.05 82.29 127.20 C 80.29 127.19 78.28 127.20 76.28 127.21 C 76.17 129.20 76.53 131.24 76.06 133.20 C 74.03 133.72 71.90 133.30 69.84 133.41 C 69.82 131.30 69.81 129.20 69.80 127.09 C 71.91 127.07 74.03 127.07 76.16 127.09 C 76.14 125.03 76.12 122.97 76.10 120.91 C 74.02 120.88 71.93 120.86 69.85 120.82 C 70.19 116.64 68.85 112.09 70.78 108.19 C 72.59 108.29 74.40 108.39 76.21 108.47 C 76.27 110.45 76.31 112.43 76.36 114.42 C 80.39 114.44 84.41 114.41 88.43 114.49 C 88.59 118.75 88.50 123.02 88.64 127.29 C 92.85 127.27 97.05 127.26 101.26 127.28 C 101.29 125.70 101.33 124.12 101.37 122.54 C 100.73 121.90 100.09 121.26 99.46 120.61 C 97.93 120.65 96.40 120.69 94.87 120.73 C 94.85 118.67 94.84 116.62 94.84 114.57 C 97.01 114.57 99.19 114.57 101.36 114.58 C 101.47 116.59 100.37 118.83 101.28 120.72 C 103.19 121.49 105.39 120.53 107.41 120.63 C 107.40 122.80 107.39 124.96 107.38 127.13 C 113.64 127.25 119.89 127.12 126.15 127.21 C 126.13 131.33 126.14 135.45 126.14 139.58 C 128.23 139.56 130.32 139.56 132.41 139.55 C 132.40 137.49 132.38 135.43 132.37 133.38 C 136.49 133.38 140.61 133.37 144.73 133.42 C 144.78 129.20 144.77 124.98 144.77 120.76 C 146.82 120.76 148.88 120.77 150.93 120.80 C 151.01 118.71 151.07 116.62 151.14 114.54 C 155.25 114.55 159.36 114.54 163.46 114.54 C 163.47 112.50 163.49 110.46 163.50 108.43 C 161.44 108.43 159.37 108.43 157.31 108.44 C 157.31 106.45 157.23 104.45 157.45 102.47 M 113.67 133.47 C 113.67 135.45 113.67 137.44 113.67 139.43 C 115.69 139.45 117.72 139.47 119.74 139.49 C 119.74 137.47 119.74 135.46 119.74 133.44 C 117.72 133.44 115.69 133.45 113.67 133.47 M 163.58 139.42 C 165.58 139.44 167.57 139.46 169.57 139.48 C 169.64 138.37 169.77 136.14 169.83 135.02 C 168.48 134.06 166.40 132.29 164.78 133.80 C 162.93 135.05 163.81 137.56 163.58 139.42 M 138.54 139.53 C 138.54 145.82 138.55 152.10 138.54 158.39 C 144.82 158.36 151.10 158.37 157.38 158.39 C 157.37 152.11 157.36 145.82 157.40 139.54 C 151.11 139.54 144.83 139.56 138.54 139.53 M 119.72 145.64 C 119.69 147.25 119.65 148.87 119.61 150.48 C 120.26 151.10 120.90 151.72 121.54 152.35 C 123.12 152.29 124.70 152.22 126.28 152.16 C 126.27 150.00 126.26 147.84 126.25 145.68 C 124.07 145.67 121.89 145.66 119.72 145.64 M 144.67 164.45 C 144.67 166.54 144.66 168.63 144.65 170.72 C 146.86 170.73 149.08 170.73 151.30 170.72 C 151.27 168.80 151.30 166.87 151.12 164.96 C 149.21 163.97 146.78 164.65 144.67 164.45 M 157.40 170.68 C 159.41 170.68 161.43 170.68 163.44 170.67 C 163.44 168.66 163.44 166.64 163.43 164.63 C 161.43 164.62 159.44 164.62 157.44 164.62 C 157.42 166.64 157.41 168.66 157.40 170.68 Z" />
<path fill="#7a5730" opacity="1.00" d=" M 89.16 109.16 C 90.82 107.96 92.94 108.49 94.84 108.35 C 94.83 110.36 94.81 112.36 94.78 114.37 C 92.67 114.47 90.56 114.51 88.44 114.52 C 88.55 112.72 88.12 110.76 89.16 109.16 Z" />
<path fill="#7a5730" opacity="1.00" d=" M 32.42 120.75 C 34.55 120.75 36.69 120.77 38.82 120.81 C 38.55 122.81 39.25 125.15 37.83 126.83 C 36.08 127.39 34.21 127.13 32.40 127.22 C 32.40 125.07 32.41 122.91 32.42 120.75 Z" />
<path fill="#7a5730" opacity="1.00" d=" M 44.88 120.75 C 51.16 120.77 57.44 120.74 63.72 120.78 C 63.71 122.90 63.70 125.02 63.70 127.14 C 57.39 127.23 51.09 127.11 44.79 127.24 C 44.92 129.26 45.01 131.29 45.12 133.32 C 51.31 133.30 57.51 133.30 63.71 133.31 C 63.70 135.36 63.70 137.41 63.70 139.46 C 67.86 139.52 72.02 139.50 76.17 139.49 C 76.21 141.57 76.24 143.66 76.26 145.74 C 80.38 145.73 84.50 145.75 88.62 145.72 C 88.62 147.85 88.62 149.98 88.62 152.12 C 86.60 152.13 84.57 152.13 82.55 152.13 C 82.47 153.79 82.37 155.45 82.26 157.12 C 85.98 159.52 90.73 157.72 94.89 158.57 C 94.88 162.63 94.89 166.69 94.85 170.75 C 90.69 170.81 86.52 170.80 82.36 170.77 C 81.92 166.63 83.57 161.89 81.10 158.23 C 79.47 158.32 77.84 158.41 76.21 158.48 C 76.12 154.25 76.14 150.02 76.16 145.79 C 69.90 145.84 63.65 145.84 57.39 145.79 C 57.38 143.73 57.38 141.68 57.37 139.62 C 46.98 139.59 36.58 139.64 26.19 139.60 C 26.20 137.67 26.15 135.74 26.33 133.83 C 30.22 132.65 34.47 133.56 38.50 133.32 C 38.69 131.29 38.22 129.08 39.19 127.21 C 41.05 126.82 42.96 126.98 44.85 126.89 C 44.85 124.84 44.86 122.80 44.88 120.75 Z" />
<path fill="#7a5730" opacity="1.00" d=" M 132.38 120.80 C 134.44 120.80 136.50 120.80 138.56 120.80 C 138.56 122.90 138.55 124.99 138.54 127.10 C 136.49 127.12 134.44 127.14 132.40 127.15 C 132.38 125.03 132.38 122.92 132.38 120.80 Z" />
<path fill="#7a5730" opacity="1.00" d=" M 76.29 133.74 C 78.04 133.08 80.30 132.84 81.83 134.16 C 82.77 135.85 82.38 137.81 82.52 139.64 C 80.39 139.59 78.25 139.53 76.12 139.40 C 76.24 137.51 75.85 135.59 76.29 133.74 Z" />
<path fill="#7a5730" opacity="1.00" d=" M 7.46 145.72 C 22.06 145.72 36.66 145.74 51.26 145.72 C 51.28 160.33 51.29 174.94 51.25 189.55 C 36.65 189.59 22.05 189.57 7.45 189.56 C 7.45 174.95 7.43 160.33 7.46 145.72 M 13.91 152.15 C 13.80 162.48 13.93 172.81 13.86 183.14 C 24.17 183.10 34.49 183.14 44.81 183.11 C 44.86 172.80 44.84 162.49 44.82 152.18 C 34.52 152.14 24.21 152.19 13.91 152.15 Z" />
<path fill="#7a5730" opacity="1.00" d=" M 144.76 145.75 C 146.91 145.75 149.06 145.75 151.22 145.77 C 151.14 147.83 151.15 149.91 150.86 151.96 C 148.84 152.18 146.80 152.14 144.77 152.16 C 144.76 150.02 144.76 147.89 144.76 145.75 Z" />
<path fill="#7a5730" opacity="1.00" d=" M 63.56 152.08 C 65.67 152.06 67.77 152.06 69.88 152.07 C 69.90 154.17 69.90 156.28 69.90 158.39 C 67.82 158.38 65.75 158.38 63.68 158.39 C 63.68 160.41 63.69 162.44 63.70 164.47 C 65.77 164.47 67.83 164.48 69.90 164.48 C 69.91 166.52 69.91 168.56 69.90 170.61 C 72.02 170.66 74.13 170.69 76.24 170.72 C 76.24 174.90 76.23 179.08 76.30 183.26 C 78.37 183.27 80.44 183.29 82.50 183.33 C 82.48 185.40 82.46 187.48 82.44 189.56 C 78.24 189.58 74.03 189.58 69.83 189.56 C 69.81 183.27 69.86 176.99 69.79 170.71 C 67.77 170.77 65.75 170.81 63.73 170.84 C 63.70 172.93 63.68 175.02 63.65 177.12 C 61.56 177.09 59.47 177.06 57.38 177.01 C 57.40 170.77 57.36 164.53 57.41 158.29 C 59.48 158.29 61.54 158.29 63.60 158.31 C 63.58 156.23 63.57 154.16 63.56 152.08 Z" />
<path fill="#7a5730" opacity="1.00" d=" M 19.90 158.21 C 26.19 158.14 32.49 158.10 38.78 158.23 C 38.90 164.52 38.88 170.82 38.79 177.12 C 32.48 177.14 26.17 177.10 19.86 177.18 C 19.89 170.86 19.83 164.53 19.90 158.21 Z" />
<path fill="#7a5730" opacity="1.00" d=" M 182.26 158.28 C 184.36 158.28 186.47 158.30 188.57 158.33 C 188.57 160.41 188.56 162.49 188.56 164.57 C 186.47 164.58 184.38 164.58 182.29 164.59 C 182.27 162.48 182.26 160.38 182.26 158.28 Z" />
<path fill="#7a5730" opacity="1.00" d=" M 101.11 164.49 C 107.16 164.41 113.22 164.64 119.27 164.32 C 120.36 166.30 119.82 168.61 119.86 170.76 C 113.63 170.79 107.40 170.84 101.17 170.77 C 101.13 168.67 101.11 166.58 101.11 164.49 Z" />
<path fill="#7a5730" opacity="1.00" d=" M 88.56 177.03 C 90.65 177.02 92.74 177.02 94.82 177.04 C 94.86 179.14 94.88 181.24 94.90 183.34 C 92.79 183.35 90.68 183.35 88.58 183.33 C 88.56 181.23 88.56 179.13 88.56 177.03 Z" />
</g>
</svg>
